<svg id="Layer_1" enable-background="new 0 0 512 512" height="512" viewBox="0 0 512 512" width="512" xmlns="http://www.w3.org/2000/svg"><g><path d="m272.066 455.767c-8.284 0-15-6.716-15-15v-136.567c0-8.284 6.716-15 15-15s15 6.716 15 15v136.566c0 8.285-6.715 15.001-15 15.001z" fill="#00cfdc"/><ellipse cx="215.833" cy="440.767" fill="#88e2e0" rx="71.233" ry="71.233" transform="matrix(.924 -.383 .383 .924 -152.245 116.147)"/><path d="m497 391.5c-8.284 0-15-6.716-15-15v-136.567c0-8.284 6.716-15 15-15s15 6.716 15 15v136.567c0 8.284-6.716 15-15 15z" fill="#00b8d8"/><circle cx="440.767" cy="376.5" fill="#00cfdc" r="71.233"/><path d="m127.467 311.167c-8.284 0-15-6.716-15-15v-136.566c0-8.284 6.716-15 15-15s15 6.716 15 15v136.566c0 8.284-6.716 15-15 15z" fill="#00da80"/><path d="m118.434 171.576c-3.758-2.834-5.967-7.268-5.967-11.975v-112.467c0-6.697 4.439-12.583 10.879-14.423l112.466-32.133c4.525-1.294 9.397-.388 13.153 2.448 3.758 2.834 5.967 7.268 5.967 11.975v112.467c0 6.697-4.439 12.583-10.879 14.423l-112.466 32.133c-2.376.679-7.909 1.508-13.153-2.448z" fill="#bee75e"/><circle cx="71.233" cy="296.167" fill="#bee75e" r="71.233"/><path d="m248.966 3.026c-3.757-2.835-8.628-3.742-13.153-2.448l-52.113 14.889v143.667l60.354-17.244c6.44-1.84 10.879-7.726 10.879-14.423v-112.466c0-4.707-2.209-9.141-5.967-11.975z" fill="#00da80"/><path d="m263.033 316.175c-3.758-2.834-5.967-7.268-5.967-11.975v-112.467c0-6.697 4.439-12.583 10.879-14.423l224.934-64.267c4.525-1.293 9.396-.387 13.154 2.448 3.758 2.834 5.967 7.268 5.967 11.975v112.466c0 6.697-4.439 12.583-10.879 14.423l-224.934 64.267c-2.359.675-7.898 1.517-13.154-2.447z" fill="#88e2e0"/><path d="m506.033 115.492c-3.759-2.835-8.629-3.741-13.154-2.448l-108.346 30.956v143.667l116.588-33.311c6.439-1.84 10.879-7.726 10.879-14.423v-112.466c0-4.707-2.209-9.141-5.967-11.975z" fill="#00cfdc"/></g></svg>